<?xml version="1.0" encoding="UTF-8" standalone="no"?>
<!-- Created with Inkscape (http://www.inkscape.org/) -->

<svg
   width="468.71613mm"
   height="261.15103mm"
   viewBox="0 0 468.71613 261.15103"
   version="1.1"
   id="svg1"
   xmlns="http://www.w3.org/2000/svg"
   xmlns:svg="http://www.w3.org/2000/svg">
  <defs
     id="defs1" />
  <g
     id="layer2"
     transform="translate(-85.894122,-89.798704)">
    <path
       style="fill:none;stroke:#000000;stroke-width:0.4;stroke-dasharray:none;stroke-dashoffset:17.6901"
       id="path31"
       d="m 142.09314,172.65522 c -7.40377,0.64205 -14.79786,6.1655 -19.91962,11.15493 -2.15397,2.09831 -4.08418,4.41469 -6.12626,6.62203 -8.2535,9.86176 -15.25251,20.7116 -21.210827,32.09536 -2.633387,5.03125 -3.429007,7.00279 -5.635494,11.9559 -0.7738,1.93307 -2.15615,5.16023 -2.73189,7.31809 -0.15271,0.57234 -0.8665,2.91713 0.20356,3.56788 1.78675,1.08662 5.052267,-0.61548 6.287857,-1.00863 2.188007,-1.08362 4.426287,-2.07116 6.564017,-3.25088 12.546047,-6.92366 24.499597,-14.87666 36.002747,-23.41091 4.78869,-3.55275 9.54702,-7.1525 14.1594,-10.93134 4.92452,-4.03456 9.62672,-8.33311 14.44008,-12.49967 16.97604,-15.72042 32.46084,-32.96369 47.11012,-50.84829 4.35033,-5.3111 8.63441,-10.83854 12.8705,-16.25372 2.9107,-3.45181 5.38202,-7.28951 8.48301,-10.58632 0.19431,-0.2066 0.90289,-0.67918 0.65218,-0.54653 -4.87117,2.57717 -3.45266,1.4983 -6.44748,5.139 -16.0701,18.01415 -32.12133,36.04458 -48.143,54.10188 -16.3789,18.40384 0.18029,-0.16907 -13.27781,14.84384 -1.01269,1.12969 -2.26545,2.08786 -3.02352,3.40203 -0.1613,0.27963 0.67517,0.3665 0.94863,0.19494 2.75628,-1.7291 5.34268,-3.72238 7.89374,-5.74204 2.81427,-2.22804 5.46008,-4.66097 8.19012,-6.99146 14.21414,-11.87394 28.30879,-23.93029 43.07014,-35.12956 7.67199,-5.82066 4.70955,-4.91603 9.31862,-5.98407 -0.11562,0.92069 0.0611,1.92864 -0.34684,2.76205 -3.26448,6.66845 -12.51955,19.10972 -15.92456,23.74473 -13.43599,18.28953 -27.53064,36.09628 -41.51407,53.96639 -14.37899,18.0331 -8.00463,10.10362 -20.938,26.10519 -2.18751,2.70645 -4.4236,5.3743 -6.56409,8.11809 -1.19785,1.53547 -2.44491,3.04707 -3.4482,4.71617 -0.3374,0.56132 -0.94194,1.38851 -0.52475,1.89336 0.45032,0.54491 1.41361,0.0251 2.12041,0.0375 4.11924,-1.56675 7.86122,-3.91644 11.74941,-5.95158 0.82201,-0.43025 4.19678,-2.35221 5.68694,-2.32048 0.30577,0.007 0.42723,0.43775 0.64085,0.65662 -0.71988,2.59926 -2.19872,5.01885 -4.07288,6.95951 -0.67117,0.69498 -1.32981,1.53435 -2.25084,1.82621 -0.56753,0.17984 1.28219,-0.8976 1.04913,-1.44542 -0.29314,-0.68905 -1.36833,-0.6087 -2.0525,-0.91308 -0.76367,-0.66013 -1.53405,-1.31259 -2.29102,-1.9804 -2.7807,-2.45314 -3.30255,-3.18565 -6.57924,-5.26552 -4.31999,-2.7421 -9.01242,-4.47024 -13.78928,-6.20933 -0.15287,-0.0516 -6.19325,-1.98994 -6.9043,-2.53997 -0.21164,-0.16371 0.15072,-0.75201 0.41089,-0.68955 0.82993,0.19924 1.34562,1.25141 2.19671,1.31557 3.80375,0.28677 7.62548,-0.2817 11.44002,-0.28748 5.03354,-0.008 10.06575,0.16487 15.09863,0.24731 10.5766,0.12923 21.13465,0.83663 31.70657,1.10104 4.40647,0.1102 8.82103,0.36082 13.22289,0.1311 2.9197,-0.15237 6.03048,-0.0337 8.678,-1.27407 2.18702,-1.02462 4.99398,-2.7561 5.0763,-5.16984 0.0791,-2.31938 -3.15045,-3.4085 -4.72567,-5.11276 -9.72342,-6.38825 -20.70848,-10.23521 -31.64999,-13.92643 -3.22639,-1.08845 -6.5017,-2.0289 -9.72371,-3.13025 -6.02135,-2.05823 -5.83162,-0.14674 -5.6562,-3.09572 0.50686,0.62165 0.73922,1.68379 1.5206,1.86496 2.58378,0.59908 5.30199,0.18145 7.9501,0.33094 3.23564,0.18267 6.46759,0.42683 9.69958,0.66546 8.61635,0.63617 17.22352,1.39552 25.83061,2.14422 1.89513,0.16976 3.79026,0.33952 5.68539,0.50929 0,0 2.79003,-1.99283 2.79003,-1.99283 v 0 c -1.93609,-0.14052 -3.87218,-0.28103 -5.80827,-0.42155 -8.67057,-0.65002 -17.33858,-1.32657 -26.00569,-2.02158 -3.18849,-0.25568 -6.37552,-0.53008 -9.56529,-0.76931 -2.57298,-0.19296 -5.15497,-0.78124 -7.72265,-0.52725 -2.67048,0.26415 -5.18818,1.37396 -7.78226,2.06095 1.55021,2.8463 0.22105,0.95501 6.5782,2.94515 14.15216,4.43043 28.66798,8.52209 41.00363,17.0953 1.43489,1.60904 3.01017,3.10312 4.30467,4.82712 0.39502,0.52606 1.31275,1.59366 0.70424,1.84365 -5.48458,2.25315 -17.53965,1.65004 -22.37006,1.55676 -10.55843,-0.20391 -21.10215,-0.93996 -31.66074,-1.13827 -0.5769,-0.0179 -23.18672,-0.84566 -25.83642,-0.52247 -2.91914,0.35605 -5.76036,1.3168 -8.47823,2.43989 -0.32395,0.13386 -0.25262,0.84375 0.03,1.05111 2.00759,1.47312 5.09322,0.9841 7.05689,2.45052 3.51574,1.25693 6.00048,2.03229 9.36918,3.70172 3.03493,1.50402 5.34484,2.97393 7.94281,5.11341 0.99667,0.82079 1.88699,1.76281 2.83435,2.64006 0.76085,0.70451 1.52685,1.40348 2.29027,2.10521 0.72524,0.37029 1.3698,1.22733 2.17573,1.11086 4.30133,-0.62162 7.39227,-3.38252 9.64609,-6.80237 0.56653,-0.85962 1.10816,-1.74931 1.48995,-2.70542 0.26734,-0.6695 0.29081,-1.41217 0.43621,-2.11826 -0.32021,-0.30511 -0.51998,-0.87723 -0.96063,-0.91535 -1.42548,-0.12333 -5.2047,2.01349 -5.90495,2.38055 -3.80758,1.99592 -7.47826,4.27688 -11.47202,5.90365 -0.5764,0.19335 -1.23139,0.92911 -1.72918,0.5801 -0.44578,-0.31256 -0.003,-1.13406 0.25583,-1.61314 0.86526,-1.60301 1.97492,-3.06458 3.05919,-4.52835 2.00006,-2.70009 4.11586,-5.31254 6.18909,-7.95685 6.76155,-8.62406 13.60761,-17.18171 20.32075,-25.84383 13.97398,-17.99355 28.06124,-35.91146 41.79058,-54.09318 1.78851,-2.36851 14.70668,-19.11884 17.16307,-24.5224 0.45382,-0.99824 -0.12655,-2.18944 -0.18981,-3.28416 -2.4043,1.23105 -4.92525,2.25691 -7.21291,3.69314 -3.26433,2.04942 -14.96902,11.43309 -17.11405,13.15108 -11.29433,9.0458 -22.41311,18.30694 -33.53904,27.55801 -2.86948,2.38502 -5.83126,4.66319 -8.60845,7.15506 -0.66553,0.59716 -1.11503,1.39836 -1.68871,2.08422 -0.23363,0.27931 -0.9595,1.09516 -0.7325,0.81044 4.92557,-6.17794 10.44854,-11.84889 15.51393,-17.90811 16.1401,-18.32965 32.39231,-36.55786 48.99547,-54.4709 0.80788,-0.94129 2.69285,-1.61302 2.42361,-2.82388 -0.45794,-2.05949 -2.89179,0.49409 -3.40299,1.106 -2.79115,3.34099 -5.2645,6.9297 -7.93182,10.36703 -4.30641,5.66207 -7.87077,10.41569 -12.40223,16.04256 -14.41412,17.89844 -29.80734,35.04692 -46.71239,50.63998 -4.84916,4.17644 -9.58553,8.48753 -14.54746,12.52933 -8.27378,6.73951 -18.74782,14.34305 -27.65077,20.35497 -4.04991,2.73479 -12.64672,8.29836 -17.81402,11.08248 -2.06694,1.11366 -4.210597,2.07866 -6.315897,3.11798 -0.38396,0.12933 -4.393847,1.94104 -5.764947,1.30998 -0.37524,-0.1727 -0.51465,-0.70127 -0.54428,-1.11327 -0.0514,-0.71435 0.14111,-1.43023 0.31129,-2.12591 0.54017,-2.20809 1.75996,-5.16719 2.52716,-7.18474 2.12018,-4.94363 2.825017,-6.79723 5.408787,-11.82128 5.866737,-11.40768 12.882317,-22.22755 21.202177,-32.00543 6.85888,-7.24693 4.8594,-5.66569 11.98705,-11.37694 0.47759,-0.38268 0.95987,-0.77614 1.50981,-1.04464 2.02366,-0.98804 4.22793,-1.77648 6.49673,-1.84523 z" />
    <path
       style="fill:none;stroke:#000000;stroke-width:0.4;stroke-dasharray:none;stroke-dashoffset:17.6901"
       id="path32"
       d="m 318.51152,170.06009 c -2.70087,2.67457 -5.40446,5.34627 -8.06654,8.05992 1.68373,-2.077 -2.2529,1.96898 -1.42338,2.05921 0.63665,0.0692 1.29929,-0.14398 1.87259,-0.42933 2.12297,-1.05661 4.11882,-2.35187 6.15556,-3.56639 1.93199,-1.15208 6.77807,-4.26264 8.51392,-5.36888 4.18973,-2.67635 8.34327,-5.41153 12.60287,-7.97691 0.28723,-0.173 -1.09516,0.33544 -0.84018,0.55323 1.14731,-0.37769 0.80076,-0.61317 1.2419,-0.19394 -1.73839,3.0666 2.2711,2.37427 4.00428,2.17729 1.11829,-0.1271 2.22785,-0.32176 3.34177,-0.48264 3.8894,-0.65053 7.74819,-1.46549 11.61156,-2.25157 1.17993,-0.24008 5.08989,-1.10405 6.49322,-1.1358 0.66198,-0.015 1.30881,0.2021 1.9632,0.30314 0.32975,0.39334 0.80595,0.7006 0.98928,1.18002 0.80931,2.11627 -0.28316,6.16723 -0.48662,8.29967 -0.40539,4.24865 -0.24069,3.526 0.39492,7.83852 0.50223,1.35653 0.89326,2.75958 1.50669,4.06958 3.13037,6.68507 8.67379,12.00239 13.8465,17.10815 1.70232,1.89226 3.74197,3.60207 4.1584,6.34105 0.70816,4.65745 -1.35348,8.8282 -2.72267,13.10686 0,0 2.89841,-1.36293 2.89841,-1.36293 v 0 c 1.50246,-4.47618 3.66918,-8.63526 2.95785,-13.51504 -0.40949,-2.80908 -2.48497,-4.52521 -4.2327,-6.44894 -5.17382,-5.034 -10.71512,-10.29262 -13.78757,-16.95823 -0.59563,-1.29225 -0.96652,-2.67669 -1.44978,-4.01503 -0.58248,-4.28174 -0.74909,-3.54473 -0.3002,-7.76997 0.25601,-2.40956 1.45563,-6.25846 0.48395,-8.65698 -0.22693,-0.56019 -0.77798,-0.92522 -1.16697,-1.38784 -0.6999,-0.1141 -1.39068,-0.35499 -2.09973,-0.34229 -1.36351,0.0244 -5.43859,0.93733 -6.57723,1.17167 -3.84188,0.79068 -7.68114,1.60234 -11.55324,2.23542 -1.20912,0.16875 -5.65589,1.03952 -6.98492,0.58776 -0.72403,-0.24612 0.259,-1.67839 0.0586,-2.14587 -0.66408,-0.66436 -0.45842,-0.73362 -1.69029,-0.0909 -6.21467,3.24259 -11.93813,7.3261 -17.88308,11.01482 -10.02374,6.34107 0.39703,-0.22161 -8.69657,5.42498 -0.0709,0.044 0.14986,-0.0735 0.22479,-0.11028 -0.44219,0.35716 -0.88439,0.71433 -1.32662,1.07149 -0.10628,0.0598 0.0419,-0.24032 0.0628,-0.36048 0.43027,-0.46877 0.86056,-0.93755 1.29082,-1.40633 2.70831,-2.75743 5.4604,-5.46997 8.25889,-8.13584 z" />
    <path
       style="fill:none;stroke:#000000;stroke-width:0.4;stroke-dasharray:none;stroke-dashoffset:17.6901"
       id="path33"
       d="m 337.68352,235.74912 c -1.98078,2.82939 -4.21502,5.727 -7.02778,7.78971 -0.5809,0.42599 -1.25542,0.70674 -1.88315,1.06011 0.64606,-0.57211 1.55043,-0.94538 1.93821,-1.71631 0.14544,-0.28912 -0.59865,-0.30109 -0.79346,-0.55954 -0.24122,-0.32006 -0.35404,-0.72378 -0.46421,-1.10913 -0.13812,-0.48306 -0.33052,-2.2405 -0.56738,-2.72238 -0.17676,-0.35959 -0.52255,-0.60758 -0.78382,-0.91138 -0.46607,-0.10348 -0.92081,-0.3069 -1.39822,-0.31045 -2.2438,-0.0167 -4.52633,1.1678 -6.58421,1.88795 -2.632,0.92106 -1.88002,0.67957 -4.44299,1.23183 -0.60523,0.0305 -1.20994,0.10758 -1.81573,0.0915 -3.01532,-0.0801 -0.20455,-0.32483 -3.47258,-0.36338 -3.10975,-0.0367 -6.273,0.69516 -9.32502,1.17431 -4.25479,0.50358 -8.3266,-0.0288 -12.16854,-1.99836 -3.53464,-1.81199 -6.17421,-4.63376 -8.85152,-7.47517 -2.45097,-2.67635 -4.75835,-6.25594 -8.63219,-6.92075 -1.89246,-0.32478 -2.70767,0.0628 -4.51991,0.49276 -2.59686,1.28626 -6.84088,2.59286 -7.86987,5.4552 -0.66151,1.84016 0.55832,3.56609 1.4101,5.05713 1.87592,2.62181 3.7873,5.25668 6.01525,7.59729 1.73709,1.82492 2.258,2.16785 4.22084,3.82158 2.091,1.92308 6.03761,3.57425 7.34367,6.1925 2.28812,4.587 -0.35565,10.45509 -1.66531,14.81165 -2.1344,6.45823 -5.62515,12.36276 -7.92023,18.75335 -0.81666,2.27396 -1.68703,5.12223 -1.38022,7.63916 0.098,0.80404 0.54009,1.5273 0.81013,2.29094 0.96546,1.9494 3.50834,2.28727 4.4772,4.21789 1.2755,2.54169 -0.23517,5.67941 -1.04916,8.04693 1.02839,1.65216 -2.52444,3.06747 -2.11225,4.7508 0.0951,0.3886 0.81352,0.385 1.17931,0.22299 3.0489,-1.35032 6.61045,-3.87331 9.50042,-5.74069 1.47857,-0.95535 2.9687,-1.89267 4.45304,-2.839 0.87119,-0.3682 2.20771,-1.00336 3.09083,-0.85831 0.29382,0.0483 0.34367,0.56467 0.26705,0.85241 -0.58079,2.18109 -3.50502,5.06706 -5.01759,6.6839 0,0 3.40413,-1.42645 3.40413,-1.42645 v 0 c 1.47474,-1.62647 4.77676,-4.8737 4.97959,-7.1515 0.18606,-2.08968 -2.29486,-1.0641 -3.01114,-0.72694 -2.40051,1.13003 -4.63158,2.58961 -6.94738,3.88443 -0.42576,0.27008 -7.58769,4.80142 -8.3517,5.3287 -0.22064,0.15227 0.87408,-0.55462 0.73575,-0.32493 -0.16719,0.27763 -0.76747,0.81034 -0.83748,0.4939 -0.36693,-1.65817 2.85136,-3.1242 1.97138,-4.69792 0.87291,-2.56982 2.34873,-5.73519 0.98002,-8.45992 -0.9611,-1.91333 -3.35653,-2.26105 -4.43421,-4.07424 -0.27032,-0.70995 -0.70313,-1.37784 -0.81097,-2.12981 -0.34743,-2.4229 0.42704,-5.19899 1.18663,-7.40408 2.21287,-6.42387 5.721,-12.32556 7.88347,-18.77222 1.40076,-4.54891 4.11051,-10.47755 1.75122,-15.26874 -1.2996,-2.63921 -5.23838,-4.32186 -7.34393,-6.2503 -0.7448,-0.63271 -1.51244,-1.23944 -2.23435,-1.89813 -3.03631,-2.77041 -5.51802,-6.09282 -7.85773,-9.45165 -0.76364,-1.38373 -1.91225,-3.01161 -1.19065,-4.69213 0.21328,-0.49667 1.33654,-0.91888 0.96012,-1.30676 -0.4,-0.41215 -2.04378,1.01084 -1.59436,0.65325 0.58918,-0.46879 1.35115,-0.66485 2.02671,-0.99727 1.73345,-0.48008 2.56432,-0.89887 4.39989,-0.66178 3.8748,0.50047 6.20099,4.06994 8.64137,6.68997 2.7227,2.86983 5.40885,5.72188 8.97345,7.58184 3.85588,2.01194 7.94988,2.63588 12.24838,2.17672 2.97651,-0.446 6.09362,-1.16712 9.12302,-1.14182 2.29555,0.0192 1.30607,0.30484 3.50372,0.40618 0.62537,0.0288 1.25145,-0.0395 1.87717,-0.0593 2.56945,-0.52195 1.89343,-0.29771 4.50609,-1.21095 2.05272,-0.71753 4.17367,-1.78834 6.3768,-1.97391 0.41249,-0.0348 0.82508,0.0687 1.23762,0.10305 0.23574,0.24421 0.55475,0.42937 0.7072,0.73263 0.21056,0.41884 0.4816,2.40419 0.59431,2.77995 1.10723,3.69167 2.89308,1.59872 6.19141,0.14941 0.5997,-0.36895 1.24145,-0.67698 1.79908,-1.10687 2.8289,-2.18085 5.19774,-5.09245 7.16918,-8.04264 z" />
    <path
       style="fill:none;stroke:#000000;stroke-width:0.4;stroke-dasharray:none;stroke-dashoffset:17.6901"
       id="path34"
       d="m 553.97943,184.90271 c -8.45436,0.14919 -16.91052,0.17258 -25.36597,0.20767 -11.89265,-0.0311 -23.74263,1.1653 -35.43353,3.30634 -4.37772,0.80171 -11.12467,2.30642 -15.55028,3.27035 -4.44026,0.78063 -9.22882,1.83489 -13.63808,0.19315 -4.66918,-1.7385 0.17489,-0.60042 -3.83315,-2.40419 -0.64299,-0.28938 -1.36956,-0.3361 -2.05433,-0.50414 -1.02216,0.29917 -2.11111,0.42678 -3.06647,0.89752 -6.15955,3.03501 -11.59429,7.21289 -17.09897,11.25318 -7.22008,5.29937 -3.20412,2.42925 -10.3304,7.41818 -3.89659,2.51706 -5.01293,3.34687 -8.97558,5.50904 -0.25602,0.13968 -0.55587,0.18177 -0.81958,0.30634 -3.54566,1.67497 -7.05625,3.43567 -10.59454,5.12797 -2.56455,1.20033 -6.59936,3.12965 -9.17054,4.15438 -3.36492,1.34104 -7.03159,2.96392 -10.8209,2.32812 -4.89337,-0.82105 -5.93991,-3.18439 -9.08605,-6.61186 -1.04579,-2.07155 -2.25665,-4.0677 -3.13737,-6.21461 -1.84156,-4.48918 -3.08282,-9.84044 -4.07342,-14.56465 -1.37781,-6.57085 -2.31212,-13.23242 -3.29851,-19.86959 -0.32007,-4.56654 -1.98792,-9.50699 -1.48728,-14.12232 0.17595,-1.62207 0.56008,-3.22914 1.09371,-4.771 1.52734,-4.41299 3.7284,-7.74637 6.05567,-11.78975 3.81458,-6.29439 8.35218,-12.09303 12.62323,-18.07115 0.97685,-1.36729 3.50748,-4.76056 4.24263,-6.76034 0.15209,-0.41374 0.048,-0.88031 0.072,-1.32047 -0.94367,-0.44367 -1.12256,-0.77316 -2.22409,-0.16957 -1.25993,0.69037 -2.8737,1.1296 -3.60078,2.36871 -0.34364,0.58564 1.32836,0.3603 2.00724,0.34702 1.29321,-0.0253 8.00794,-1.12485 8.7187,-1.23548 6.93364,-0.9219 14.13258,-3.10051 21.1595,-1.57663 2.99838,0.65024 3.79531,1.40831 6.29374,2.93689 1.02051,0.46934 1.94301,1.30483 3.06153,1.40801 4.82344,0.44496 10.1789,-2.44761 14.07914,-4.3806 3.76911,-1.86801 7.42181,-3.9647 11.07327,-6.05335 5.64815,-3.23077 21.941,-13.02201 27.93736,-16.612797 6.24009,-2.88685 16.46735,-10.19927 23.81435,-5.57841 4.49498,2.8271 4.52689,10.480607 4.97983,14.979487 0.35065,4.69693 1.05844,9.36432 3.33693,13.55555 1.10482,2.03227 2.83826,3.68653 3.88961,5.74696 0.52332,1.02559 0.78301,2.16557 1.17454,3.24836 0.70053,4.4804 -0.3428,8.78993 -1.41142,13.1088 -0.34682,1.40168 -1.81288,6.02145 -1.55382,7.84511 0.1025,0.7217 0.76377,1.24179 1.14567,1.86268 0.9112,0.1032 1.8206,0.39522 2.73362,0.30959 1.2758,-0.11966 2.51296,-0.52559 3.73338,-0.91615 3.85839,-1.23477 7.43244,-3.26895 11.38216,-4.23833 0.62024,-0.15223 1.26585,-0.17091 1.89876,-0.25636 0,0 3.03032,-2.26463 3.03032,-2.26463 v 0 c -0.6768,0.092 -1.36726,0.11251 -2.03041,0.27605 -5.11646,1.26172 -9.7582,4.46108 -14.98737,5.23183 -0.8254,0.12165 -1.66831,-0.0332 -2.50246,-0.0498 -0.37772,-0.52602 -1.02709,-0.93922 -1.13316,-1.57806 -0.309,-1.86102 1.10117,-6.31479 1.45071,-7.74527 1.07559,-4.40192 2.15443,-8.78466 1.42859,-13.35 -0.4029,-1.11213 -0.66966,-2.28351 -1.20872,-3.3364 -1.04497,-2.04096 -2.78662,-3.6608 -3.90813,-5.66071 -2.31003,-4.11921 -3.06875,-8.72248 -3.43747,-13.37217 -0.4622,-4.62589 -0.48339,-12.508727 -5.18805,-15.341687 -8.46117,-5.09497 -22.70133,5.35051 -29.00077,8.43492 -4.39589,2.627057 -8.7888,5.259117 -13.18765,7.881197 -3.39892,2.02602 -6.76556,4.10785 -10.20571,6.06306 -3.57073,2.02944 -7.14163,4.06807 -10.82319,5.88876 -3.42383,1.69324 -9.03933,4.65456 -13.46388,4.28248 -1.10655,-0.0931 -2.02375,-0.9148 -3.03563,-1.37219 -2.56869,-1.56832 -3.38624,-2.34561 -6.46985,-3.00898 -7.05791,-1.51837 -14.28219,0.64655 -21.25379,1.53254 -1.6269,0.2373 -3.25041,0.49911 -4.8807,0.7119 -0.10099,0.0132 -4.13844,0.33187 -5.05081,0.70961 -1.05268,0.43583 -2.05307,0.99261 -3.04267,1.55723 -0.54592,0.31147 1.86436,-0.97296 1.83108,-0.45015 -0.002,0.36865 0.11149,0.75665 -0.006,1.10595 -0.69921,2.07178 -2.87457,5.05555 -3.92516,6.55843 -4.20714,6.01836 -8.76515,11.79871 -12.57747,18.08925 -2.33762,4.02907 -4.66653,7.55217 -6.20205,11.96992 -0.54743,1.57497 -0.93496,3.21967 -1.10701,4.87817 -0.4776,4.60393 1.2849,9.53933 1.64987,14.08572 1.05724,6.61812 2.05376,13.26199 3.44304,19.82117 1.00082,4.72514 2.25196,10.15566 4.05918,14.65993 0.87619,2.18376 2.07506,4.22378 3.11259,6.33566 3.1713,3.54943 4.21546,5.98069 9.20926,6.90022 3.8299,0.70522 7.46519,-0.8814 10.87892,-2.22136 2.55207,-1.00174 6.54367,-2.89422 9.08845,-4.07432 9.04542,-4.30699 18.09106,-8.69545 26.34893,-14.42116 5.23015,-3.68102 10.32798,-7.53939 15.55067,-11.22934 1.60253,-1.13224 3.234,-2.22301 4.85771,-3.32465 0.31541,-0.214 0.60832,-0.47374 0.95941,-0.62212 0.9332,-0.39441 1.91416,-0.6646 2.87124,-0.99689 0.65867,0.12697 1.35798,0.12012 1.97602,0.38089 5.36164,2.26213 -2.39591,0.13208 4.00433,2.45761 4.55589,1.65539 9.4837,0.52816 14.05287,-0.30398 4.53099,-1.00857 11.13811,-2.51701 15.6351,-3.35566 11.64714,-2.17207 23.46007,-3.39071 35.3173,-3.28552 8.26489,0.0347 16.53058,0.056 24.79434,0.20765 z" />
    <path
       style="fill:none;stroke:#000000;stroke-width:0.4;stroke-dasharray:none;stroke-dashoffset:17.6901"
       id="path35"
       d="m 205.71474,115.20179 c -13.17294,1.4281 -26.24301,3.62875 -39.27911,5.96877 -16.02036,3.28153 -33.3819,6.83488 -46.30666,17.64622 -1.93281,1.61677 -3.27078,3.83417 -4.9062,5.75126 -0.80814,2.13451 -2.04613,4.15272 -2.42448,6.40353 -1.48349,8.82521 4.89815,19.22469 14.33629,19.96845 2.67015,0.21042 5.29024,-0.84245 7.93535,-1.26367 3.68131,-2.2057 7.36264,-4.41141 11.04398,-6.61712 0,0 -2.84811,1.10162 -2.84811,1.10162 v 0 c -1.8733,1.19277 -3.74663,2.38554 -5.61993,3.57831 -2.58964,0.44941 -5.14639,1.52276 -7.76894,1.34824 -9.31217,-0.61972 -15.55356,-10.85851 -14.05546,-19.51998 0.38169,-2.20673 1.6056,-4.18132 2.4084,-6.27198 2.92878,-3.39612 5.02817,-6.57547 8.93606,-8.81785 11.13817,-6.39117 24.46914,-8.86717 36.86411,-11.49348 12.76617,-2.26492 25.5783,-4.45825 38.52013,-5.43458 z" />
    <path
       style="fill:none;stroke:#000000;stroke-width:0.4;stroke-dasharray:none;stroke-dashoffset:17.6901"
       id="path36"
       d="m 407.38212,180.11944 c -10.15724,2.08956 -20.00832,5.36583 -29.74752,8.87526 -10.48777,3.90568 -20.49878,8.98162 -29.68223,15.40116 -4.38195,3.06312 -6.53576,5.39173 -10.3637,9.04659 -5.12498,5.61356 -10.1877,11.99121 -11.42289,19.74932 -0.68857,4.32506 -0.0764,5.38459 0.7927,9.55801 0.65331,1.46367 1.17001,2.99632 1.95992,4.39102 3.31801,5.85839 8.83878,10.44754 14.55177,13.84046 1.47836,0.878 3.04144,1.60477 4.56218,2.40715 7.54251,3.47511 15.76824,5.20288 24.08158,4.77763 1.57248,-0.0804 3.13275,-0.32032 4.69911,-0.48048 7.31946,-1.22748 13.38704,-4.60587 19.49328,-8.71129 2.2614,-1.52041 4.37584,-3.55674 6.38966,-5.37546 3.49372,-3.39125 6.61681,-7.19601 8.83436,-11.55295 1.30948,-2.57272 1.44635,-3.30799 2.35307,-6.01497 1.09398,-3.99266 1.31948,-8.14479 0.64365,-12.23176 -0.42431,-2.56582 -0.83388,-3.55631 -1.61557,-6.03709 -2.22602,-6.34505 -6.00964,-11.89607 -10.01593,-17.22744 -2.41972,-3.15742 -5.10934,-6.08466 -7.85807,-8.9537 0,0 -3.17175,1.93598 -3.17175,1.93598 v 0 c 2.76304,2.83997 5.46415,5.74171 7.8854,8.88463 3.99418,5.29089 7.74589,10.81172 9.93863,17.12714 0.76245,2.45303 1.16668,3.44283 1.57459,5.97766 0.65055,4.04291 0.3992,8.14431 -0.70528,12.08406 -0.91363,2.67664 -1.05185,3.39939 -2.36331,5.94107 -2.22422,4.31075 -5.34225,8.06922 -8.82018,11.42212 -5.85014,5.23624 -0.12715,0.24267 -6.38635,5.31371 -0.22579,0.18294 -0.36449,0.47126 -0.61592,0.61698 -3.95976,2.29497 -8.21534,3.90598 -12.72919,4.69833 -1.56196,0.17164 -3.11716,0.42364 -4.68587,0.51493 -8.27606,0.48161 -16.48198,-1.19544 -24.00914,-4.61988 -1.51485,-0.79215 -3.07221,-1.50786 -4.54454,-2.37646 -5.66496,-3.34199 -11.14097,-7.88488 -14.41794,-13.68924 -0.77565,-1.37392 -1.28066,-2.88397 -1.92098,-4.32595 -0.84172,-4.10566 -1.43867,-5.14246 -0.74919,-9.39271 1.24529,-7.67641 6.27396,-13.97373 11.35901,-19.52059 5.69839,-5.41174 4.01553,-4.0848 10.34198,-8.97521 1.05611,-0.81637 2.08696,-1.67647 3.22548,-2.37331 6.56471,-4.01799 13.67624,-7.04799 20.83007,-9.82952 9.53685,-3.43245 19.1888,-6.66919 29.17851,-8.52072 z" />
    <path
       style="fill:none;stroke:#000000;stroke-width:0.4;stroke-dasharray:none;stroke-dashoffset:17.6901"
       id="path37"
       d="m 427.27075,151.43558 c -9.12419,0.0129 -18.22892,0.5929 -27.32635,1.23181 -17.96373,1.30069 -35.80853,3.77684 -53.52283,6.98458 -7.01313,1.42733 -14.06583,2.94011 -20.76164,5.53359 -4.82135,1.86745 -8.92035,4.14199 -13.27968,7.04218 -1.43949,0.95766 -2.68928,2.17367 -4.03391,3.2605 -3.90708,3.93379 -7.56288,8.57159 -7.8104,14.36799 -0.12917,3.02459 0.42712,3.84817 1.35999,6.64546 0.58306,1.00582 1.08603,2.06252 1.74916,3.01744 2.91219,4.19365 7.19426,7.45348 11.72178,9.72105 1.36901,0.68566 2.80522,1.228 4.20783,1.84199 8.31799,3.04956 17.1464,4.50863 25.96856,5.05317 1.8075,0.11156 3.61945,0.13346 5.42917,0.2002 10.40625,0.32959 20.50613,-2.00465 30.39877,-4.96151 7.05498,-2.12391 13.89399,-4.8225 20.38567,-8.30234 0,0 2.87234,-2.31259 2.87234,-2.31259 v 0 c -6.51062,3.54571 -13.37781,6.30067 -20.47163,8.46318 -9.87996,2.99995 -19.97035,5.38223 -30.37866,5.08935 -1.80758,-0.0612 -3.61728,-0.077 -5.42274,-0.18366 -8.77748,-0.51853 -17.56315,-1.95832 -25.83318,-5.00682 -1.38515,-0.61015 -2.80339,-1.15008 -4.15544,-1.83045 -4.45886,-2.24379 -8.69796,-5.45536 -11.56544,-9.59449 -0.64794,-0.93525 -1.13628,-1.97151 -1.70442,-2.95727 -0.90083,-2.73062 -1.44076,-3.52941 -1.2973,-6.47854 0.27699,-5.69432 3.92115,-10.23079 7.78033,-14.07088 0.72433,-0.57812 4.26077,-3.60674 5.87804,-4.42284 8.29646,-4.18657 17.35698,-6.38784 26.42066,-8.19658 17.68575,-3.2629 35.5092,-5.78954 53.46464,-6.98685 8.90238,-0.56259 17.82067,-1.11124 26.74562,-0.83649 z" />
    <path
       style="fill:none;stroke:#000000;stroke-width:0.4;stroke-dasharray:none;stroke-dashoffset:17.6901"
       id="path38"
       d="m 475.62912,148.93922 c -7.16156,2.2853 -13.85858,5.7662 -20.4397,9.34558 -8.42624,4.69169 -16.36207,10.2715 -22.8242,17.48931 -3.88898,4.34377 -4.27143,5.33291 -7.41992,10.17168 -4.42487,8.0107 -7.43929,16.86268 -7.88088,26.0584 -0.0733,1.52637 0.0148,3.05621 0.022,4.58432 0.46694,6.24073 2.1014,12.41872 5.88322,17.50354 0.61521,0.82717 1.33305,1.57284 1.99959,2.35926 3.23133,3.20586 7.2744,5.45617 11.88852,5.72199 0.84625,0.0487 1.69508,-0.028 2.54265,-0.042 2.20268,-0.34591 3.13423,-0.37617 5.25441,-1.19145 4.24667,-1.63297 8.36864,-4.40948 11.44344,-7.76399 0.96629,-1.05419 1.80933,-2.21506 2.71399,-3.32259 5.44865,-7.42619 9.12805,-15.87502 12.13988,-24.52312 0.38304,-1.22658 0.76607,-2.45317 1.14911,-3.67974 0,0 -3.26348,1.54105 -3.26348,1.54105 v 0 c -0.37515,1.21842 -0.75027,2.43684 -1.1254,3.65526 -2.98834,8.62814 -6.66792,17.05205 -12.18184,24.40206 -0.92295,1.09939 -1.84589,2.19878 -2.76884,3.29817 -0.94408,0.87838 -1.97781,1.66937 -2.83231,2.63513 -0.0864,0.0976 0.46429,0.0955 0.35433,0.16552 -2.36985,1.5096 -5.12506,2.19966 -7.8695,2.58242 -0.83606,0.0284 -1.67225,0.11797 -2.50815,0.0853 -4.55416,-0.17828 -8.56882,-2.3269 -11.78329,-5.46269 -0.66387,-0.77034 -1.37856,-1.49964 -1.99158,-2.31102 -3.77512,-4.99661 -5.4049,-11.10064 -5.89026,-17.26272 -0.0106,-1.51294 -0.10178,-3.02745 -0.032,-4.53882 0.42167,-9.12984 3.4185,-17.9169 7.83744,-25.85458 1.13352,-1.72856 2.17606,-3.52034 3.40058,-5.18568 5.6655,-7.70507 13.08333,-13.82614 21.08195,-18.97155 6.42284,-3.50321 12.96093,-6.92196 19.97813,-9.09123 z" />
    <path
       style="fill:none;stroke:#000000;stroke-width:0.4;stroke-dasharray:none;stroke-dashoffset:17.6901"
       id="path39"
       d="m 424.13266,253.20821 c -5.72342,1.27565 -11.39685,2.74792 -17.02589,4.38773 -7.11562,2.07546 -13.65538,5.47431 -19.78572,9.61867 -2.92913,1.98021 -4.98367,4.1208 -7.53864,6.53574 -3.3082,3.48575 -6.46547,7.17691 -9.00065,11.2766 -1.37409,2.22208 -2.72971,4.75166 -3.23874,7.35971 -0.22508,1.15324 -0.12539,2.34664 -0.18807,3.51996 0.2844,1.1171 0.41389,2.28555 0.85318,3.35129 2.61249,6.33796 9.82048,10.1668 15.55078,13.13196 5.60527,2.58876 11.54432,4.41748 17.73195,4.81814 3.99238,0.2585 5.43105,0.004 9.40128,-0.30641 6.73589,-0.95459 13.50386,-2.36339 19.8464,-4.89125 1.02856,-0.40992 2.02565,-0.8949 3.03847,-1.34234 4.72067,-2.50364 1.87785,-0.93437 8.44016,-4.86428 0,0 -3.44123,1.33511 -3.44123,1.33511 v 0 c 1.62142,-0.62441 0.84103,-0.35544 -2.13341,1.25717 -1.01288,0.45863 -2.0093,0.95552 -3.03864,1.37586 -6.34007,2.58905 -13.12494,4.03045 -19.87333,5.03214 -3.95615,0.333 -5.378,0.59491 -9.35775,0.3601 -6.15662,-0.36322 -12.06961,-2.1544 -17.64999,-4.71885 -5.63168,-2.90293 -12.76358,-6.68028 -15.30445,-12.92402 -0.42079,-1.03407 -0.53869,-2.16686 -0.80806,-3.25027 0.0678,-1.13999 -0.0217,-2.30029 0.20336,-3.4199 0.51371,-2.55683 1.85864,-5.05868 3.21135,-7.23662 2.53135,-4.07562 5.68246,-7.74131 8.99409,-11.19298 5.05449,-4.72043 2.16781,-2.22506 7.57782,-6.48075 0.36058,-0.28366 0.67419,-0.63477 1.07212,-0.86311 3.97306,-2.27982 8.24079,-3.9649 12.61205,-5.30377 5.51622,-1.60593 11.07641,-3.04902 16.70847,-4.19452 z" />
    <path
       style="fill:none;stroke:#000000;stroke-width:0.4;stroke-dasharray:none;stroke-dashoffset:17.6901"
       id="path40"
       d="m 394.20154,283.80479 c -1.85246,1.10948 1.17411,-0.70136 1.10466,-0.67744 -1.04336,0.35941 -1.96924,0.99711 -2.96614,1.47034 -1.42711,0.6775 -2.86184,1.33922 -4.30512,1.98155 -4.77205,2.12375 -6.70541,2.87607 -11.665,4.9182 -14.06734,5.69154 -28.30211,10.95621 -42.49496,16.32379 -5.8057,2.25565 -11.65855,4.40306 -17.39234,6.84041 -2.93806,1.24893 -6.07348,2.63175 -8.83785,4.2587 -2.19945,1.29448 -4.32022,2.71817 -6.48033,4.07726 -0.89067,0.83068 -1.88561,1.56205 -2.672,2.49208 -1.99771,2.36263 -2.99006,5.40994 -1.49146,8.33517 1.37517,2.6842 3.20858,3.55259 5.58901,5.3163 1.53948,0.79954 3.03977,1.67944 4.61838,2.39863 7.69683,3.50663 16.09246,5.71609 24.4044,7.15079 2.14156,0.36965 4.30178,0.62161 6.45266,0.93242 9.47901,1.01597 19.08013,1.59888 28.59185,0.63534 1.61674,-0.16377 3.22212,-0.42473 4.8332,-0.63711 7.80608,-1.27104 15.32374,-3.77074 22.6813,-6.60705 5.04512,-2.33428 10.49501,-4.73112 14.18465,-9.04803 0.50861,-0.59505 0.92509,-1.26307 1.38761,-1.89458 0.31104,-0.72025 0.72559,-1.40414 0.93313,-2.16072 1.13313,-4.1307 -0.59465,-8.36059 -1.95728,-12.18475 0,0 -3.17357,1.75438 -3.17357,1.75438 v 0 c 1.30545,3.7769 2.95045,7.94755 1.72014,11.9912 -0.223,0.73285 -0.64421,1.38999 -0.96632,2.085 -1.35461,1.78149 -1.41065,2.03779 -3.13002,3.54145 -0.63346,0.55398 -1.43105,0.92429 -1.99035,1.55307 -0.23625,0.26559 1.2836,-0.60473 0.98094,-0.41828 -1.74493,1.07487 -3.2299,1.66982 -5.1005,2.5145 -7.3787,2.89121 -14.91991,5.44549 -22.75682,6.77188 -1.61372,0.22288 -3.2214,0.49487 -4.84113,0.66868 -9.52569,1.02216 -19.15009,0.48411 -28.65215,-0.50014 -2.14979,-0.30406 -4.30893,-0.54801 -6.44935,-0.91221 -8.26434,-1.40618 -16.61068,-3.60502 -24.23689,-7.14589 -1.54618,-0.71789 -3.01178,-1.59787 -4.51766,-2.39681 -2.26155,-1.70873 -4.05945,-2.58879 -5.34972,-5.17059 -1.4106,-2.82255 -0.33737,-5.72315 1.59467,-7.94838 0.78418,-0.90315 1.76456,-1.61514 2.64684,-2.42273 1.26387,-1.79221 0.40053,-0.74578 4.52933,-2.76371 7.20203,-3.51996 14.83637,-6.07769 22.25627,-9.07618 14.17219,-5.38123 28.38884,-10.65041 42.46226,-16.28701 8.20225,-3.3382 16.59221,-6.50433 24.12209,-11.2309 z" />
    <path
       style="fill:none;stroke:#000000;stroke-width:0.4;stroke-dasharray:none;stroke-dashoffset:17.6901"
       id="path41"
       d="m 325.29482,248.66405 c -4.38155,4.17983 -9.88184,6.83183 -15.19888,9.57664 -18.97018,9.26285 -39.66311,14.03028 -60.11884,18.74621 -18.3687,3.88556 -36.81779,7.55507 -55.4576,9.89626 -3.12325,0.3923 -6.25691,0.69678 -9.38536,1.04516 -10.39091,1.03494 -20.84563,1.25688 -31.26865,0.65413 -4.92184,-0.28464 -7.00443,-0.53404 -11.80995,-1.00462 -6.52092,-0.64419 -12.99263,-1.64905 -19.44429,-2.77535 -1.55921,-0.13941 -2.32916,-0.35936 -3.43506,2.43686 -0.20876,0.52787 1.0395,0.45678 1.56568,0.66974 3.32364,1.34515 6.6842,2.60742 10.03135,3.89208 8.08483,3.04384 16.14012,6.16466 24.18313,9.31706 0,0 2.88605,-1.9367 2.88605,-1.9367 v 0 c -8.03142,-3.13488 -16.06911,-6.2535 -24.10875,-9.36722 -3.70095,-1.47014 -3.83992,-1.5054 -7.31648,-2.95662 -0.83467,-0.34843 -1.66964,-0.69635 -2.4979,-1.05973 -0.48354,-0.21215 -0.92405,-0.7918 -1.43702,-0.66657 -1.33538,0.326 -2.48858,1.18232 -3.65498,1.90969 -0.18624,0.11612 0.43817,-0.0269 0.65725,-0.0403 6.58104,0.91834 13.13914,2.02303 19.76807,2.57331 14.5053,1.33419 28.88443,1.85309 43.40922,0.1933 3.14747,-0.35914 6.3002,-0.67487 9.44241,-1.07749 18.69539,-2.39535 37.19773,-6.10687 55.62953,-9.99429 20.30299,-4.65727 40.86392,-9.29635 59.74559,-18.35756 7.45421,-3.79243 15.17774,-7.55578 21.43906,-13.19724 z" />
    <path
       style="fill:none;stroke:#000000;stroke-width:0.4;stroke-dasharray:none;stroke-dashoffset:17.6901"
       id="path43"
       d="m 237.23382,209.29901 c -4.0234,-0.50331 -7.83484,-2.47649 -11.40344,-4.28253 -4.12607,-2.08817 -6.79192,-3.67749 -10.84356,-5.98668 -8.79145,-5.41061 -17.94693,-10.50446 -25.74299,-17.35227 -1.3176,-1.15734 -2.52837,-2.43094 -3.79256,-3.64641 -1.02181,-1.2535 -2.17878,-2.40803 -3.06545,-3.7605 -3.05304,-4.65695 -4.53286,-10.8882 -3.68893,-16.41237 0.18282,-1.1967 0.62967,-2.33785 0.94451,-3.50677 1.68768,-2.96233 1.26951,-2.92151 3.96892,-4.99218 0.1393,-0.10685 -0.3809,0.49429 -0.20559,0.48489 1.16847,-0.0626 2.28279,-0.55232 3.4481,-0.65865 2.98582,-0.27242 4.9946,0.12177 7.96642,0.46517 0,0 2.92278,-2.0701 2.92278,-2.0701 v 0 c -2.95094,-0.37471 -5.00971,-0.78849 -7.98306,-0.58523 -4.03354,0.27572 -5.75127,1.29749 -9.54636,3.75918 -0.88632,0.57492 -1.63833,1.36516 -2.26931,2.21249 -0.66543,0.89359 -1.04933,1.96573 -1.574,2.94859 -0.29491,1.18745 -0.71975,2.34999 -0.88475,3.56233 -0.76321,5.60802 0.76479,11.89533 3.88887,16.5982 0.90352,1.36012 2.07982,2.51784 3.11973,3.77676 1.27967,1.21757 2.50642,2.49331 3.83902,3.65272 7.84733,6.82743 17.03768,11.90116 25.83229,17.35781 3.93924,2.28277 6.75059,3.96624 10.74651,6.07765 3.52522,1.86269 7.20013,3.84107 11.13493,4.67406 z" />
    <path
       style="fill:none;stroke:#000000;stroke-width:0.4;stroke-dasharray:none;stroke-dashoffset:17.6901"
       id="path44"
       d="m 249.05308,180.72746 c -0.0743,-0.2152 -0.17243,-0.4236 -0.22286,-0.6456 -0.33152,-1.45898 -0.60473,-3.46084 -0.78854,-4.87653 -0.46183,-3.55709 -0.75086,-7.06733 -0.86323,-10.65135 0.19942,-3.61317 1.00288,-6.9929 3.94454,-9.40917 1.00994,-0.82955 2.13794,-1.58248 3.38148,-1.98461 0.41521,-0.13427 0.77362,0.49413 1.20997,0.49986 1.67328,0.022 3.33521,-0.27878 5.00282,-0.41817 7.60145,0.0734 14.94864,2.08477 21.86157,5.15876 4.02556,1.79006 5.99718,3.02271 9.80355,5.17437 1.44995,0.90236 2.89986,1.80473 4.34981,2.7071 0,0 2.93081,-1.8904 2.93081,-1.8904 v 0 c -1.46092,-0.90088 -2.92185,-1.80176 -4.38277,-2.70264 -3.81315,-2.14817 -5.82806,-3.39735 -9.85345,-5.19609 -6.92439,-3.09417 -14.277,-5.15828 -21.89446,-5.32862 -1.66835,0.10985 -3.38926,-0.10006 -5.00512,0.32955 -2.11937,0.56348 -8.37486,3.00211 -10.74746,5.07122 -0.91019,0.79378 -1.68465,1.76523 -2.27917,2.81648 -1.36374,2.41139 -1.26761,4.16563 -1.54834,6.82944 0.12132,3.59871 0.41971,7.13546 0.82008,10.71385 0.0887,0.79279 0.45668,3.99742 0.63526,5.03259 0.041,0.2378 0.12914,0.46502 0.19373,0.69753 z" />
    <path
       style="fill:none;stroke:#000000;stroke-width:0.4;stroke-dasharray:none;stroke-dashoffset:17.6901"
       id="path45"
       d="m 387.4544,127.23142 c -4.86961,-1.72234 -10.26631,-1.60655 -15.36084,-1.69384 -10.20911,0.2204 -20.49052,1.20613 -30.36459,3.9308 -2.13865,0.59014 -4.23042,1.3387 -6.34563,2.00806 -9.68992,3.6809 -18.79357,8.91173 -26.85389,15.4363 -4.72442,3.82427 -6.09735,5.37005 -10.41677,9.6049 -7.24131,7.78119 -14.17781,16.26751 -18.2294,26.21607 -0.70646,1.73466 -1.19936,3.5488 -1.79903,5.3232 -0.29628,1.76177 -0.77589,3.50238 -0.88879,5.28532 -0.34684,5.47676 1.23526,10.70021 4.12541,15.32288 2.59815,4.15566 4.4664,5.65842 7.90477,9.15075 6.68702,5.92081 14.34131,10.73385 22.83727,13.60197 5.99017,2.02218 7.83484,2.04601 14.07954,3.04302 10.45593,0.91153 20.78625,-0.9094 30.58274,-4.56758 6.6118,-2.46896 8.36763,-3.6706 14.55959,-6.97808 11.59902,-6.59017 21.86197,-15.2473 30.3371,-25.54717 1.30926,-1.59114 2.50926,-3.26912 3.76388,-4.90368 4.23643,-5.81103 7.18487,-12.309 7.96674,-19.50358 0.44971,-4.13834 0.14904,-5.77971 -0.1428,-9.89943 -0.92397,-6.76949 -3.49361,-13.12028 -7.50413,-18.65659 -2.90976,-4.01675 -4.16158,-4.93049 -7.73486,-8.41212 -1.58155,-1.25905 -3.16312,-2.51811 -4.74469,-3.77716 0,0 -2.88092,1.8103 -2.88092,1.8103 v 0 c 1.56999,1.25276 3.13997,2.50552 4.70995,3.75828 3.53746,3.46442 4.77708,4.37258 7.65136,8.36819 3.95835,5.50258 6.48179,11.81142 7.38857,18.5235 0.28027,4.09519 0.57525,5.70719 0.11332,9.81792 -0.80034,7.12177 -3.75357,13.55145 -7.93904,19.30965 -1.24417,1.6221 -2.43366,3.28766 -3.73255,4.86629 -7.08195,8.60714 -15.50543,16.01902 -24.74677,22.22988 -6.17879,3.32884 -7.9256,4.53477 -14.52499,7.02447 -9.74125,3.67498 -20.01978,5.52302 -30.43275,4.64658 -6.22146,-0.97905 -8.0427,-0.99471 -14.01019,-2.99992 -8.45275,-2.84031 -16.06431,-7.6251 -22.70585,-13.52232 -3.40604,-3.48174 -5.23301,-4.95289 -7.79534,-9.09228 -2.83274,-4.57624 -4.36766,-9.73264 -4.00809,-15.13682 0.11729,-1.76287 0.59343,-3.48334 0.89013,-5.22501 0.59727,-1.75837 1.08911,-3.55616 1.79187,-5.2751 4.04566,-9.89569 10.95639,-18.33366 18.17772,-26.06491 1.67428,-1.63451 3.29845,-3.32196 5.02282,-4.90354 4.24053,-3.88939 6.45245,-5.54896 11.10438,-8.92364 1.00841,-0.73152 2.00578,-1.4874 3.08523,-2.10929 5.34455,-3.07909 6.70438,-3.4366 12.35331,-5.79206 2.10781,-0.67428 4.19172,-1.42837 6.32341,-2.02283 9.80702,-2.73491 20.02758,-3.73051 30.17652,-3.89958 4.95491,0.11923 10.18252,0.0717 14.90787,1.77881 z" />
  </g>
  <plotdata
     application="axidraw"
     model="5"
     layer="-1"
     node="44"
     last_path="0"
     node_after_path="0"
     last_known_x="4.10255905511811"
     last_known_y="9.388385826771655"
     paused_x="4.10255905511811"
     paused_y="9.388385826771655"
     randseed="172424637026"
     row="0"
     id="1724246373" />
</svg>
